<svg width="19" height="19" viewBox="0 0 19 19" fill="none" xmlns="http://www.w3.org/2000/svg">
<path d="M0.378183 0.836805C0.620406 0.594655 0.948887 0.458623 1.29139 0.458623C1.63389 0.458623 1.96238 0.594655 2.2046 0.836805L9.04139 7.6736L15.8782 0.836805C15.9973 0.713438 16.1399 0.615036 16.2975 0.547341C16.455 0.479646 16.6245 0.444013 16.796 0.442523C16.9675 0.441033 17.1376 0.473714 17.2964 0.53866C17.4551 0.603606 17.5993 0.699516 17.7206 0.820795C17.8419 0.942073 17.9378 1.08629 18.0027 1.24503C18.0677 1.40377 18.1004 1.57386 18.0989 1.74537C18.0974 1.91687 18.0618 2.08636 17.9941 2.24395C17.9264 2.40154 17.828 2.54407 17.7046 2.66322L10.8678 9.50001L17.7046 16.3368C17.9399 16.5804 18.0701 16.9067 18.0671 17.2454C18.0642 17.584 17.9284 17.908 17.6889 18.1475C17.4494 18.387 17.1254 18.5228 16.7867 18.5258C16.4481 18.5287 16.1218 18.3985 15.8782 18.1632L9.04139 11.3264L2.2046 18.1632C1.96099 18.3985 1.63471 18.5287 1.29604 18.5258C0.957368 18.5228 0.633402 18.387 0.393917 18.1475C0.154431 17.908 0.0185878 17.584 0.0156449 17.2454C0.0127019 16.9067 0.142895 16.5804 0.378183 16.3368L7.21497 9.50001L0.378183 2.66322C0.136033 2.421 0 2.09252 0 1.75001C0 1.40751 0.136033 1.07903 0.378183 0.836805Z" fill="black"/>
</svg>
