<svg width="21" height="21" viewBox="0 0 21 21" fill="none" xmlns="http://www.w3.org/2000/svg">
<circle cx="10.1961" cy="10.5361" r="10.0515" fill="#E0EBED"/>
<path d="M13.2719 8.52581H12.2064V5.17529C12.2064 4.80673 11.9049 4.50519 11.5363 4.50519H8.85589C8.48733 4.50519 8.18578 4.80673 8.18578 5.17529V8.52581H7.12032C6.52393 8.52581 6.22238 9.24952 6.64455 9.67168L9.72032 12.7475C9.98166 13.0088 10.4038 13.0088 10.6652 12.7475L13.7409 9.67168C14.1631 9.24952 13.8683 8.52581 13.2719 8.52581ZM5.50537 15.2268C5.50537 15.5954 5.80692 15.8969 6.17547 15.8969H14.2167C14.5853 15.8969 14.8868 15.5954 14.8868 15.2268C14.8868 14.8583 14.5853 14.5567 14.2167 14.5567H6.17547C5.80692 14.5567 5.50537 14.8583 5.50537 15.2268Z" fill="#4F4F4F"/>
</svg>
