<svg width="30" height="30" viewBox="0 0 30 30" fill="none" xmlns="http://www.w3.org/2000/svg">
<path d="M20 26.25C24.4088 24.3162 27.4988 20.1138 27.4988 15C27.4988 9.88625 24.4088 5.68375 20 3.75V6.25C22.9838 7.9825 24.9988 11.3088 24.9988 15C24.9988 18.6912 22.9838 22.0175 20 23.75V26.25Z" fill="black"/>
<path d="M20 8.75001V21.25C21.5313 19.875 22.5 17.2138 22.5 15C22.5 12.7863 21.5313 10.125 20 8.75001ZM5 21.25H8.37125L17.5 27.335V2.66501L8.37125 8.75001H5C3.62125 8.75001 2.5 9.87126 2.5 11.25V18.75C2.5 20.1288 3.62125 21.25 5 21.25Z" fill="black"/>
</svg>
